<svg xmlns="http://www.w3.org/2000/svg" width="197" height="40" fill="none" viewBox="0 0 197 40"><g clip-path="url(#a)"><path fill="#ff820a" d="M25.093 1.054 21.16 0l-3.315 12.37-2.992-11.168-3.933 1.054 3.233 12.066L6.1 6.269l-2.88 2.88 8.834 8.832-11-2.947L0 18.967l12.019 3.22a8.144 8.144 0 1 1 15.869-.011l10.922 2.926 1.054-3.933-12.066-3.233 11-2.947-1.054-3.934-12.066 3.234 8.053-8.053-2.88-2.88-8.71 8.711z"/><path fill="#ff820a" d="M27.877 22.221a8.1 8.1 0 0 1-2.026 3.733l7.913 7.913 2.88-2.88zm-2.106 3.816a8.14 8.14 0 0 1-3.639 2.151l2.88 10.746 3.933-1.054zm-3.786 2.19a8.2 8.2 0 0 1-2.033.256 8.2 8.2 0 0 1-2.173-.293l-2.881 10.756L18.83 40l3.154-11.773Zm-4.345-.077a8.14 8.14 0 0 1-3.574-2.183L6.133 33.9l2.88 2.88zM14 25.897a8.1 8.1 0 0 1-1.976-3.686L1.066 25.147 2.12 29.08z"/><path fill="#fff" d="M53.648 27 50.37 12.48h3.454l2.156 11.814h.242l2.552-11.814H62.8l2.552 11.814h.264l2.156-11.814h3.278L67.728 27h-4.422l-2.464-11.814h-.198L58.18 27zm24.198.308q-1.43 0-2.552-.396a5.1 5.1 0 0 1-1.87-1.144 5 5 0 0 1-1.188-1.848q-.396-1.1-.396-2.486 0-1.364.374-2.508a5.7 5.7 0 0 1 1.144-2.002 5 5 0 0 1 1.826-1.32q1.079-.462 2.442-.462 1.32 0 2.354.44 1.035.418 1.716 1.276.705.858 1.012 2.112.33 1.231.242 2.838l-9.064.088v-1.738l7.238-.066-1.122.88q.155-1.166-.154-1.914-.308-.748-.902-1.1a2.4 2.4 0 0 0-1.276-.352q-.835 0-1.474.44-.637.44-.99 1.298-.352.836-.352 2.024 0 1.87.814 2.75.837.88 2.178.88.617 0 1.034-.154.44-.176.704-.44.287-.264.44-.594.177-.33.286-.66l2.75.594a5.3 5.3 0 0 1-.594 1.474q-.373.638-1.012 1.122-.637.462-1.54.704-.88.264-2.068.264m10.143 0q-.968 0-1.716-.374a2.86 2.86 0 0 1-1.166-1.122q-.418-.726-.418-1.804 0-.946.352-1.584.375-.638 1.078-1.034.705-.396 1.738-.66 1.034-.264 2.354-.462.704-.11 1.144-.198.462-.11.682-.33.22-.242.22-.682 0-.616-.44-1.056t-1.386-.44q-.638 0-1.188.22a2.56 2.56 0 0 0-.924.66q-.375.44-.55 1.122l-2.794-.858a5 5 0 0 1 .748-1.562q.505-.66 1.21-1.1a5.1 5.1 0 0 1 1.606-.682 8.3 8.3 0 0 1 1.958-.22q1.695 0 2.75.55 1.078.529 1.606 1.672.528 1.122.528 2.904v1.98q0 .77.022 1.562.045.792.088 1.606L95.623 27H92.83a37 37 0 0 1-.176-1.254q-.066-.726-.11-1.452h-.396a5.1 5.1 0 0 1-.88 1.518q-.571.682-1.408 1.1-.814.396-1.87.396Zm1.342-2.288q.418 0 .836-.154.44-.154.836-.418a3.4 3.4 0 0 0 .748-.704q.352-.418.572-.946l-.044-1.848.506.11q-.396.286-.924.462a9 9 0 0 1-1.1.242q-.55.088-1.1.198a5.7 5.7 0 0 0-.99.286 1.8 1.8 0 0 0-.682.484q-.242.285-.242.814 0 .682.44 1.078t1.144.396m13.111 2.244q-1.935 0-2.86-1.012-.902-1.035-.902-3.278v-5.038h-1.672l.044-2.486h1.166q.682 0 1.012-.198t.396-.726l.286-1.65h1.804v2.574h2.926v2.574h-2.926v4.818q0 .792.374 1.144.375.352 1.144.352.418 0 .792-.088a1.9 1.9 0 0 0 .682-.286v2.948a6.6 6.6 0 0 1-1.254.286 9 9 0 0 1-1.012.066m4.454-.264V11.27h3.19v3.608q0 .44-.044.924a8 8 0 0 1-.11.99q-.066.485-.154.99-.066.506-.154 1.012h.484q.309-1.122.77-1.936.485-.814 1.232-1.254.749-.462 1.892-.462 2.025 0 3.036 1.43 1.012 1.408 1.012 4.334V27h-3.19v-5.61q0-1.848-.55-2.728-.528-.902-1.606-.902-.879 0-1.452.528-.572.528-.858 1.43-.285.88-.33 1.98V27zm19.247.308q-1.43 0-2.552-.396a5.15 5.15 0 0 1-1.87-1.144 5 5 0 0 1-1.188-1.848q-.396-1.1-.396-2.486 0-1.364.374-2.508a5.7 5.7 0 0 1 1.144-2.002 5 5 0 0 1 1.826-1.32q1.078-.462 2.442-.462 1.32 0 2.354.44 1.035.418 1.716 1.276.705.858 1.012 2.112.33 1.231.242 2.838l-9.064.088v-1.738l7.238-.066-1.122.88q.155-1.166-.154-1.914-.308-.748-.902-1.1a2.4 2.4 0 0 0-1.276-.352q-.835 0-1.474.44-.638.44-.99 1.298-.351.836-.352 2.024 0 1.87.814 2.75.837.88 2.178.88.617 0 1.034-.154.44-.176.704-.44.287-.264.44-.594.177-.33.286-.66l2.75.594a5.3 5.3 0 0 1-.594 1.474q-.373.638-1.012 1.122-.637.462-1.54.704-.88.264-2.068.264m7.415-.308V15.45h2.618l.022 3.938h.418q.177-1.474.594-2.398.44-.924 1.21-1.364.771-.44 1.914-.44a4 4 0 0 1 .418.022q.243 0 .55.066l-.132 3.366a2.8 2.8 0 0 0-.726-.22 4.3 4.3 0 0 0-.704-.066q-.858 0-1.474.396-.615.396-1.012 1.144-.374.726-.506 1.782V27zm14.764 0V12.48h4.136l6.578 10.274h.242l-.198-10.274h3.08V27h-3.74l-6.952-10.758h-.242L151.424 27zm22.14.308q-1.737 0-3.058-.682a5.05 5.05 0 0 1-2.068-2.046q-.747-1.365-.748-3.388 0-2.024.748-3.366.77-1.342 2.09-2.002 1.343-.682 3.036-.682 1.738 0 3.058.682a4.85 4.85 0 0 1 2.09 2.046q.77 1.342.77 3.366 0 2.046-.792 3.41a4.87 4.87 0 0 1-2.112 2.002q-1.32.66-3.014.66m.11-2.354q.858 0 1.43-.396.594-.396.88-1.188.308-.814.308-1.958 0-1.21-.33-2.046-.308-.858-.924-1.298-.615-.462-1.562-.462-.814 0-1.408.396-.593.374-.902 1.188-.308.791-.308 1.958 0 1.87.748 2.838t2.068.968M180.306 27l-2.86-11.55h3.3l1.628 9.042h.418l1.936-9.042h3.806l2.002 9.042h.418l1.584-9.042h3.234L192.89 27h-4.356l-1.804-8.976h-.374L184.64 27z"/></g><defs><clipPath id="a"><path fill="#fff" d="M0 0h196.864v40H0z"/></clipPath></defs></svg>